<svg xmlns="http://www.w3.org/2000/svg" viewBox="0 0 580.73 224.37"><defs><style>.cls-1{font-size:152px;}.cls-1,.cls-2,.cls-3,.cls-4,.cls-5,.cls-6{fill:#fff;}.cls-1,.cls-2,.cls-3,.cls-5{font-family:ATRotisSemiSans-ExtraBold, ATRotisSemisans;}.cls-2{font-size:40px;letter-spacing:0em;}.cls-3{font-size:81px;}.cls-4{stroke:#fff;stroke-miterlimit:10;stroke-width:3px;}.cls-5{font-size:60px;letter-spacing:0em;}</style></defs><title>DDDNorwayLogo</title><g id="Layer_2" data-name="Layer 2"><g id="DDD_" data-name="DDD!"><text class="cls-1" transform="translate(512.45 128.44)">!</text><text class="cls-2" transform="translate(184.91 128.07)">DeveloperDeveloper</text><text class="cls-3" transform="translate(181.91 79.36)">Developer</text><line class="cls-4" x1="172.73" y1="148.23" x2="580.73" y2="148.23"/></g><g id="Norge"><text class="cls-5" transform="translate(273.69 208.95)">Norway</text><path id="Den_norske_løve" data-name="Den norske løve" class="cls-6" d="M80.23,37.19s-8.4-.57-9.91-1-4.25-2-4.53-2.83.1-3,1.88-2.17,2.51,2,6.24,2.26c1.6.12,4,.52,4.3.47ZM0,9.26c2.55,2,14.73,12.55,24.07,14.34h6.64V18.36H36V23.6h2.62V34.08H33.34V50.55l3.4,1.61,1.13-6.51s.1-.57,1.33-.95S41.36,44,41.36,44s1.7-4,1-6.6c-.2-.82,1.6,1.13,2.17,2a13.49,13.49,0,0,1,1.17,5.57,41.49,41.49,0,0,1-.55,4.58c-.15,1.12-3.1,4.61-5,6.46,0,0,1.23.94,1.32,1.42l3.88-.76,1.79,3.31,12.37,6.8-5,12.38L42.4,68.2l-5.28-1,1.6-2.93L36,62.34V115.5c-.64,0,.67.63,1.94,2.51l1.52-.24L37,111.6a2.89,2.89,0,0,1,.5-2.14c.77-1.13,2.14-1.26,1.77-2.89a16.85,16.85,0,0,0-2.17-5.6l2.48.41s3.61,4,4.28,5.66a35.88,35.88,0,0,1,1.2,5.51c0,.5-.63,7.64-.67,7.82l2.24.7,15.24-32-7.62,0c4.64-8.11,8.3-24,10-26.16,2.85-3.62,6-8.07,10.72-11.35,2.93-2,18.26-5.5,18.26-5.5l1.65-4.44L81.78,40.07l2.38-3.78-3-4.54s-1.37-4.44-1.09-5.1,7.39-8.32,7.39-8.32l-2.83-13s1.47-.94,3.75,1.89c0,0,5.76-2.18,5.48,2.84-.06.9-.44,3-3.21,2.49a1.93,1.93,0,0,1-1.4-.95l-.33.38,1,3.13,9.78,1.92,1.64-2.55-.26-.23a3,3,0,0,1-4.21-2.84,2.56,2.56,0,0,1,3.41-2.52,9.09,9.09,0,0,1,1.06.41s.85-2.45,3.14-2a2.78,2.78,0,0,1,2.41,2.87s3.75-.72,3.62,3.22c0,.78-1.1,2.59-2.71,2.36a8.54,8.54,0,0,1-2.19-.82c-.21-.15-.18.13-.11.41s.51,2.87.51,2.87l9.47,1.8,2.37-2.36s-.06-.36-.21-.41-3.07,1.16-4.2-1.54c-.11-.27-.91-3.25,2.61-3.82.46-.07,2.12-.09,3.33,2.05a7.59,7.59,0,0,1,3.25-1.45,4.25,4.25,0,0,1,2,.45l-7.06,10.9c.32,0,3.16.67,3.9,1.42.21.23.45,5,.06,5.83a41.3,41.3,0,0,1-4.12,5.9,78.06,78.06,0,0,1-.1,13.4c-.6,4.49-4.15,12-8.47,21.81-.84,1.9-2.6,5.88-3.67,8.26-.48,1.05-.26,6.56-.26,7.19-.47-.09-3.44-1.7-3.39-.48,0,0,.63,26.51,1.81,34.15.19,1.22,2.38-.76,12.43,5.92,2.59,1.72,18.19,15.31,28.38,17.77,4.7,1.14,16.86-1.11,13.76-13.47-.54-2.16-4.14-7.23-8.51-11.24-3.06-2.8-16.52-15-18.76-19.92-1.6-3.5-6.83-10.6,4.14-23.58,1.59-1.89,15.84-15.89,22.41-22.19,2-1.9,12.55-14.56,7.56-25.34-2.13-4.6-9.68-11.79-19-4.79-1.06.8-3.53,4.53-2.79,7.82,0,0,6.46,3,7.31,5.35,2.53,7-1,18.54-1.78,19.73l-1.87,1.58a35,35,0,0,0,.23-6.61,27.43,27.43,0,0,0-1.33-5.94l-2.26-1.07s2.13,9.9-.42,12.87c-.55.63-15.1,10-19.31,16.9l-2.25.31s5.07-12.1,8.83-17.65c1.29-1.89,4.58-6.39,5.3-11.54.18-1.25.12-2.46-.48-1.89s-5,4.95-5.43,5.36-2,.39-2.25.37c0,0,5-10.46,7.68-13.43a4.64,4.64,0,0,0,1.4-3c0-.94.49-12.92,11.75-16.64,1.84-.61,14.2-3.21,21.14,8.83.94,1.65,6.33,10.84-2.19,25.47a107.72,107.72,0,0,1-7.92,11.16c-.66.79-8.29,10.84-8.29,12.11,0,.12.48-.08.48-.08s4.15-.74,4.52-.87,6.51,1.32,6.51,1.32l7.08-1.76-.62,2.14L146.65,87.57l-.06,2,4.5-1.27s.48-.44,2.56-.06a61,61,0,0,0,7.43,1.07c.72-.13,6.69-2.09,6.69-2.09l-.36,2.4-19,10.79.25,1.89,4-1.07s.13-.13,1.71.19,6.39.88,6.39.88l5.91-1.76-.11,2.21-14.31,8.44s6.8,10.4,8.36,12.85c6.26,9.75,2.35,17.82-.33,21-.57.67-5,7-15.72,6-1-.1-8.22-.47-22.84-10.12-1.79-1.18-6.85-4.26-9.86-6.72-1.27-1-8.12-7-8.12-7l-3.42,1.13s7.77,6.7,8.8,7.85c1.27,1.42,9.28,9.77,11.15,12.67.55.85,5.38,4.82,10.78,8,.57.34,3.51.14,5.57,1.89,1.88,1.6,5,6.12,5.4,7.47s-.1,3.22,0,3.6,9.78,18.09,12.5,24.3a31.66,31.66,0,0,0,5.44,8.49l-.49,1.81-9.7-2.07-7.76,2.27s.19,6.79-1.56,8.13a5.55,5.55,0,0,1-4.39.47s-3,3.4-1.82,5.58l-1.82-.85s-2-6.52.62-9.55c.54-.6,2-2.93,2-2.93l-1.64-.67s-3.4,5-6.3,5.48a4.64,4.64,0,0,1-3.75-1.89c-.22-.3-4.39,2.56-4.74,3.78l-.83-2.18s2.65-5.3,3.83-6.43,1.46-1.71,2.84-2.18,6.39-.85,6.94-1l.19-1.8s-4.47,0-5.12-.48-.82-3-1.56-3.68a7.47,7.47,0,0,0-5.2-.95s1.36-2.55,3.84-2.55c1.14,0,4.93-1.89,8.59.37a25.08,25.08,0,0,1,7.48,6.15l4.12-1s-5.21-9.55-8.86-12.77c-1.78-1.57-8.59-9.74-9.5-10.78s-1.52-1.78-12.7-3.22c-1.54-.2-18.11.63-21.38-.94-2.36-1.14-10.29-9.54-12.12-13.34-1.05-2.18,1.35-8.48,3-15.55.57-2.44,3.48-12.81,3.48-14.83v-5l-3.16-2.4s.15,5.42,0,6.56-2.34,11.22-6.72,26.47c-.47,1.62-1.1,5,1.09,7.44,1.16,1.32,6.12,7.94,6.12,7.94s-1,.65-1.22.88a24.3,24.3,0,0,0-4.65,5.92c-.74,1.64-1.83,2.53-1.58,6.05.11,1.54.36,4.92.36,4.92a26.51,26.51,0,0,1-5.15,4.92,6.61,6.61,0,0,1-4.35.5s-19.61,15.13-20.71,15.63-6,7.46-6,7.46h-1.1a34.7,34.7,0,0,0-1.15-5.68c-.31-.94-.47-1-2.16-1.32-2.65-.53-3.88-.78-4.13.61-.11.61-1,4-1,4s-2.28,2.43-3.77,3.91c-1.12,1.09-2.79,1.52-4.79,2.17a1.81,1.81,0,0,1-.82-.12s-1.71-.38-2.07-.38c0,0,4-2.45,4-4v1.91s-2-3.13-1.49-4.17a9.85,9.85,0,0,1,4.8-4.39l-.94-1.33s-5.81,1.26-6.63.88A6.74,6.74,0,0,1,16,201.1c-.19-.5,0-1.14-1.06-1.14a6.5,6.5,0,0,0-3.1.63l-1.87,1.26.06-2.4a48.18,48.18,0,0,1,4.45-3.54,38.72,38.72,0,0,1,4.86-1.08c.47.06.35-.19,2.06.63s4.27,2.78,4.57,2.59a14.24,14.24,0,0,0,1.22-1.2s-4.34-4.93-4.45-5.44a6,6,0,0,1,1.81-3.67,3.64,3.64,0,0,0-.35-2.66,22.79,22.79,0,0,0-2.7-3l2.88-.31s4,2.91,4.28,3.35a40,40,0,0,0,2.45,4.62c.48.64.65,2.84.71,3.41s.22,4.68.22,5.12a14.31,14.31,0,0,0,5.28.63c6.78-5.15,11.16-13,17.34-18.78,1.18-.58,2.11-1,2.11-1s-2.34-2.59-2.74-4.42c-.55-2.4-.29-21.18,2.11-28.58.48-1.5,4.34-4.94,5.62-5.75.69-.43,11.2-9.68,14.77-11.44.55-.27.53-.38.35-.89-.13-.34-1.33-6.38-2.91-10.93-1.05-2.42-2.7-3.93-4.43-6.7L82.37,90.91,80,88.75l-31.22,47.5H47.59l-1.73-7s-3-.76-3.51-.51-3.58,8.05-4.34,8.59c-.35.25-1.94-.44-2-.5V152H28.1V136.38c2.3,0,1,.12,0,2l-1.26,2.51-1.07-2.26s1.45-6.16,2.72-7.55c.84-.93,1.95-1.82,1.95-2.33s-.18-5.54-.18-5.54-2.15.12-2.65-.32-1.83-4.65-2.83-5-5-.12-5.67.06a6.32,6.32,0,0,1,2.07-2.64c1-.55,9.51-1.39,9.51-1.39V67.54s-3.17,2.94-4.46,2.36C25.4,69.52,24,67,21.8,68.58a25.11,25.11,0,0,0-2.92,3.11l-.9-1,.52-3.1a24.55,24.55,0,0,1,4-5.63,17.4,17.4,0,0,1,7.83-3.49l.1-1.89S25.69,56.5,25,56a9.7,9.7,0,0,1-2-4.61S21,49.33,16.63,50.18L18,47.72s5.48-1.32,7.66-.94,5,.94,5,.94V34.24s-4-.58-6.42.75C20.44,37.16,10.61,48.2,9.19,50.55A81,81,0,0,1,.41,8.86M86,34.27,86.59,38,99,39.41l-.76-3.54Zm2.81-7.35c.14,3.58,4.08,2.77,4.82,2.5,4.35-1.6,2.64-4.29,2.64-4.29,7.5-.66,16.05,3.25,16.05,3.25l4.3-2.74-26.4-4.9-4.82,4.72.62,2.88Zm26.78,3.38c.21.15,1.62.83,2.79,4.18a11.68,11.68,0,0,0,2.33-3.23,16,16,0,0,1-.05-2.22,5.41,5.41,0,0,0-2-.71C117.39,28.26,116.44,29.78,115.62,30.31ZM68.92,76c.08-.34,4.46-9.58,5.83-10.77s8.35-2.63,8.35-2.63l1.17-3.36a54.9,54.9,0,0,0-10.72,3C70.72,63.27,65.42,76,65.42,76ZM39.16,125.09s-.25-1.23-.32-1.48-.18-.19-.54-.26a12,12,0,0,0-2.35.22v3.05l3.21-1.54"/></g></g></svg>