<svg xmlns="http://www.w3.org/2000/svg" viewBox="0 0 569 270.38"><defs><style>.cls-1{font-size:152px;}.cls-1,.cls-2,.cls-3,.cls-4,.cls-5,.cls-6{fill:#fff;}.cls-1,.cls-2,.cls-3,.cls-6{font-family:ATRotisSemiSans-ExtraBold, ATRotisSemisans;}.cls-2{font-size:40px;}.cls-2,.cls-6{letter-spacing:0em;}.cls-3{font-size:81px;}.cls-4{stroke:#fff;stroke-miterlimit:10;stroke-width:3px;}.cls-6{font-size:60px;}</style></defs><title>DDDStavangerLogo</title><g id="Layer_2" data-name="Layer 2"><g id="DDD_" data-name="DDD!"><text class="cls-1" transform="translate(500.73 168.07)">!</text><text class="cls-2" transform="translate(173.18 167.7)">DeveloperDeveloper</text><text class="cls-3" transform="translate(170.18 118.99)">Developer</text><line class="cls-4" x1="161" y1="187.86" x2="569" y2="187.86"/></g><g id="Stavanger"><g id="Sverd_i_fjell" data-name="Sverd i fjell"><path id="Path_1" data-name="Path 1" class="cls-5" d="M126.53,100.8c1.4-4.79.82-8.42-5.26-8.65a3.87,3.87,0,0,1-3.62-3.27c-.47-1.75,1.17-2.69,2.22-3.74,3-2.92,7-2.1,10.52-2.1,3,0,4.68-.7,4.79-4.21.23-7.6.7-15.2,1.17-22.68.23-3.51-.58-5.61-4.44-5.61-2.1,0-4.33-.23-4.21-3.51.12-2.45,0-4.79,3.27-5.14a8.3,8.3,0,0,0,2.1-.94c6.43-3.27,11.69-2.57,16.83,2.1,2.1,1.87.94,4,1.05,6,.12,2.69-2.22,2.45-3.86,2.34-4.33-.47-4.79,1.87-4.56,5.26.58,7.36,1.17,14.73,1.29,22.09,0,3.51,1.64,4.79,4.68,5.26l8.65,1.4a4.27,4.27,0,0,1,0,8.53c-4.68,0-5,2.69-4.91,6.31.23,10.52.23,21.16.12,31.68-.35,17.65-1.17,35.42-1.52,53.07-.35,26.07-.7,52-.58,78.09,0,5.84-1.75,7.48-7.13,6.78s-12.27,2.34-15.66-1.17c-3-3.16-.94-10.05-.94-15.2.12-25.25-.12-50.62.58-75.86.47-15.9-.12-31.8-.12-47.69,0-6.2-.35-12.39.12-18.59.47-5-2.69-5.26-6-5.61-4.44-.47-2.57,3.27-2.57,4.91-.23,17.65-.12,35.3-.35,53-.12,11.81-.23,23.73-.23,35.42,0,12.74-.82,25.6-.23,38.46.47,10.05-.47,20.22-.58,30.28,0,2.1-1.4,2-2.69,2-7,0-14,0-21,.12-2.69,0-3.16-1.17-3-3.62.35-21.16.94-42.32.94-63.47,0-24.08-.47-48.16-.58-72.36,0-7.36-.12-14.61.23-22,.12-4-1.17-5.38-5-4.44-1.52.35-3.62,1.87-4.33-.82-.82-2.92,1.87-2.92,3.51-3.62,2.45-1.05,5.14-2.34,7.72-2.45,6.31-.23,7.95-3.86,8.18-9.23.23-6.55.7-13.21,1.4-19.76.35-3.62-.35-6.08-4.44-6.66a9,9,0,0,1-2.69-1.17c-1.4-.82-2.69-1.64-2.1-3.62A2.76,2.76,0,0,1,97,54.74c5.84,1.75,11.69,2.81,17.65.82,1.29-.47,1.75.47,2.22,1.29a1.7,1.7,0,0,1-1.17,2.69c-10.75,2-7.6,9.94-7.13,16.72.12.94.12,2,.23,2.92C109.93,96.12,109.93,96.12,126.53,100.8Z"/><path id="Path_2" data-name="Path 2" class="cls-5" d="M23.66,13.24c-1.05-1.29-2-2.45-2.81-3.62-1.05-1.64-2-3.51-1.17-5.49,1.05-2.34,3.16-2,5-1.75A5,5,0,0,0,28.92,1.2c2.57-2,5.14-1.29,7.48.47.82.58,1.29,2,2,2,7.6.58,7.36,4,4.21,9.59-2,3.62,2,3.51,3.74,3.27,1.52-.23,2.57-1.05,2.81.94.35,2.34.82,4.68-.7,6.78-1.17,1.64-1.87-.23-2.81-.47-6.9-2.57-10.52-.12-10.4,7.13.12,9.59,1.4,19.05,2.45,28.52.47,4.09,1.52,7.48,6.78,7.72,2.45.12,4.79,1.52,7.13,2.34,1.29.47,3.16,1.17,3.86,0,4.68-7,4.56.47,5.49,2,1.87,3.16,1.29,6.9-.47,10.05-1.05,2-2.45,5.14-4.91.82-1.4-2.45-4-2-6.31-1.87-3,.23-2,2.81-2.34,4.44-1.17,6.08-.58,12.16-.7,18.12-.58,28.64-1.17,57.16-1.52,85.8q-.53,38.22-.82,76.45c0,3.62-1.17,4.68-4.68,4.56-7.36-.23-14.85-.12-22.21,0-2.81.12-3.62-.94-3.62-3.74.58-27.59,0-55.17.12-82.76,0-11.1.47-22.33.47-33.43.12-12.16-.7-24.43,1.05-36.94a115.53,115.53,0,0,0,.7-30.51c-.23-2.34-.58-4.09-3.39-4.68-2.45-.47-5.14-2.34-6.78.7C3.67,82,3,79.17,2.15,78.12A12.28,12.28,0,0,1,.4,68.07c1.05-5,2.69-5.73,6.78-3,7.6,4.91,16.83.7,17.77-8.07s1.75-17.42,2.69-26.07A9.09,9.09,0,0,0,16.76,20.84c-1.05.12-2.22,2.22-3.16-.12-1.05-2.69-1.17-5.49.58-7.83,1.52-2.1,2,.7,3,1.05A7.84,7.84,0,0,0,23.66,13.24Z"/></g><text class="cls-6" transform="translate(229.99 248.59)">Stavanger</text></g></g></svg>